<?xml version="1.0" encoding="UTF-8" standalone="no"?>
<!-- Created with Inkscape (http://www.inkscape.org/) -->

<svg
   xmlns:dc="http://purl.org/dc/elements/1.1/"
   xmlns:cc="http://creativecommons.org/ns#"
   xmlns:rdf="http://www.w3.org/1999/02/22-rdf-syntax-ns#"
   xmlns:svg="http://www.w3.org/2000/svg"
   xmlns="http://www.w3.org/2000/svg"
   xmlns:sodipodi="http://sodipodi.sourceforge.net/DTD/sodipodi-0.dtd"
   xmlns:inkscape="http://www.inkscape.org/namespaces/inkscape"
   width="210mm"
   height="297mm"
   viewBox="0 0 210 297"
   version="1.1"
   id="svg8"
   inkscape:version="0.92.4 (5da689c313, 2019-01-14)"
   sodipodi:docname="favicon.svg">
  <defs
     id="defs2">
    <clipPath
       clipPathUnits="userSpaceOnUse"
       id="clipPath4541">
      <rect
         style="fill:#ff0000;fill-opacity:1;stroke-width:0.29586253"
         id="rect4543"
         width="139.09525"
         height="132.33582"
         x="-187.82892"
         y="56.430557" />
    </clipPath>
  </defs>
  <sodipodi:namedview
     id="base"
     pagecolor="#ffffff"
     bordercolor="#666666"
     borderopacity="1.0"
     inkscape:pageopacity="0.0"
     inkscape:pageshadow="2"
     inkscape:zoom="0.30215686"
     inkscape:cx="36.952814"
     inkscape:cy="628.93297"
     inkscape:document-units="mm"
     inkscape:current-layer="layer1"
     showgrid="false"
     inkscape:window-width="1920"
     inkscape:window-height="1017"
     inkscape:window-x="-8"
     inkscape:window-y="-8"
     inkscape:window-maximized="1" />
  <metadata
     id="metadata5">
    <rdf:RDF>
      <cc:Work
         rdf:about="">
        <dc:format>image/svg+xml</dc:format>
        <dc:type
           rdf:resource="http://purl.org/dc/dcmitype/StillImage" />
        <dc:title></dc:title>
      </cc:Work>
    </rdf:RDF>
  </metadata>
  <g
     inkscape:label="Layer 1"
     inkscape:groupmode="layer"
     id="layer1">
    <path
       style="fill:#000000;stroke-width:0.26458332"
       d="m -238.37697,221.31872 v -9.92598 l 7.47448,0.0703 7.47448,0.0703 0.0782,1.78594 0.0782,1.78594 h -5.56834 -5.56834 v 2.51354 2.51354 h 4.8948 4.89479 v 1.68074 1.68071 l -4.20062,0.18463 c -2.31034,0.10152 -4.513,0.10617 -4.89479,0.0103 l -0.69418,-0.17418 v 3.86514 3.86514 h -1.98437 -1.98438 z m 19.68932,6.81714 c 0.76889,-1.70987 2.75445,-6.17921 4.41236,-9.93184 l 3.01438,-6.823 1.96833,0.0761 1.96833,0.0761 2.08779,4.7625 c 1.14828,2.61938 3.07808,7.05445 4.28844,9.85573 l 2.20065,5.09323 h -2.15386 -2.15386 l -0.83453,-2.05052 -0.83454,-2.05052 h -4.71125 -4.71126 l -0.80421,2.04962 -0.80421,2.04962 h -2.16527 -2.16527 l 1.39798,-3.10885 z m 12.32527,-4.65801 c 0,-0.0517 -0.65485,-1.65505 -1.45521,-3.56309 -0.80037,-1.90804 -1.45781,-3.62194 -1.46098,-3.80865 -0.003,-0.18675 -0.71755,1.36096 -1.5875,3.43929 -0.86995,2.07835 -1.58173,3.83453 -1.58173,3.9026 0,0.0681 1.36922,0.1238 3.04271,0.1238 1.67349,0 3.04271,-0.0423 3.04271,-0.094 z m 14.12899,-2.08886 0.0262,-9.85573 h 1.98437 1.98437 l -0.0115,1.05833 c -0.006,0.58209 -0.0361,5.01717 -0.0662,9.85573 l -0.0546,8.7974 h -1.94445 -1.94444 z m 13.35548,9.26042 c -0.0583,-1.07852 -0.0593,-1.83772 -0.0133,-10.61006 l 0.0455,-8.69185 5.4901,0.11083 c 4.85479,0.098 5.66008,0.17754 6.95894,0.68755 1.4297,0.56136 2.80238,1.72077 3.38558,2.85959 1.51894,2.96603 0.54858,6.66242 -2.20309,8.39218 -0.65786,0.41355 -1.19611,0.81582 -1.19611,0.89395 0,0.0781 1.06426,1.67452 2.36503,3.54756 l 2.36504,3.40556 h -2.34162 -2.34162 l -2.20623,-3.1668 -2.20623,-3.16682 -2.05052,-0.008 -2.05052,-0.008 v 3.175 3.175 h -1.98438 c -1.87194,0 -1.98619,-0.0337 -2.01656,-0.59531 z m 10.51432,-9.70061 c 1.38356,-0.6283 1.95329,-1.44528 1.95329,-2.80096 0,-2.35966 -1.22899,-3.04252 -5.47697,-3.04321 h -3.12199 l 0.0817,3.17551 0.0817,3.1755 2.69643,-0.006 c 2.05967,-0.005 2.95368,-0.12264 3.78584,-0.50051 z m 18.08632,9.61724 c -0.14192,-0.37328 -0.25804,-0.7474 -0.25804,-0.83138 0,-0.14428 -5.4733,-17.28049 -5.74819,-17.99685 -0.0983,-0.2562 0.40103,-0.33684 2.08574,-0.33684 h 2.215 l 2.07947,6.849 2.07947,6.84901 1.31118,-3.74015 c 0.72115,-2.05709 1.78842,-5.13914 2.37171,-6.84901 l 1.06052,-3.10885 1.76266,5e-5 1.76265,3e-5 0.97193,2.97653 c 0.53457,1.63709 1.53681,4.73364 2.22721,6.88126 l 1.25528,3.90472 1.67853,-5.35993 c 0.92319,-2.94798 1.8714,-6.04456 2.10713,-6.88131 l 0.42861,-1.52135 h 2.0818 c 1.14499,0 2.0818,0.0298 2.08178,0.0661 -6e-5,0.1335 -3.65157,11.35205 -5.04546,15.50116 l -1.43666,4.27644 h -1.89822 -1.89821 l -2.19894,-6.61453 c -1.20941,-3.63803 -2.26025,-6.61453 -2.33519,-6.61443 -0.0749,8e-5 -0.50972,1.16094 -0.96617,2.57969 -0.45645,1.41872 -1.46848,4.39407 -2.24896,6.61186 l -1.41904,4.03233 -1.92478,0.003 c -1.82372,0.003 -1.93832,-0.0331 -2.18281,-0.67611 z m 27.08588,0.34795 c 0.0816,-0.1819 1.38745,-3.18823 2.90174,-6.68073 1.51429,-3.4925 3.40744,-7.77875 4.20698,-9.525 l 1.4537,-3.175 1.96729,-0.0763 1.96728,-0.0763 1.09048,2.45753 c 2.38225,5.36874 7.48736,17.15617 7.48736,17.28793 0,0.077 -0.96488,0.10538 -2.14418,0.0631 l -2.14418,-0.0768 -0.83617,-2.08809 -0.83619,-2.0881 -4.61438,0.0169 -4.61441,0.0169 -0.98693,2.13736 -0.98695,2.13733 h -2.02993 c -1.52675,0 -1.99316,-0.082 -1.88151,-0.33073 z m 13.2919,-8.24712 c -1.99805,-4.73178 -2.61567,-6.13584 -2.77312,-6.30438 -0.10168,-0.10882 -0.70707,1.0818 -1.3453,2.64583 -0.63823,1.56403 -1.32154,3.23734 -1.51847,3.71846 l -0.35804,0.87476 3.1695,-0.0599 3.1695,-0.0599 z m 17.572519,4.84839 c 0,-3.20654 -0.069,-3.82797 -0.49173,-4.43177 -0.72914,-1.04138 -6.916611,-11.37589 -6.916611,-11.55235 0,-0.0834 0.96909,-0.11699 2.153501,-0.0747 l 2.15352,0.0768 1.14872,1.85208 c 0.63177,1.01865 1.77607,2.89381 2.54283,4.16701 0.76679,1.27322 1.45806,2.31502 1.53617,2.3151 0.0781,1.1e-4 1.32829,-1.90243 2.77812,-4.22786 l 2.6361,-4.22804 2.19093,-0.005 2.19097,-0.005 -0.98558,1.52135 c -0.54205,0.83675 -2.33164,3.65567 -3.97687,6.26428 l -2.99133,4.74292 v 3.6576 3.6576 h -1.98437 -1.98437 z m 31.74999,-6.19242 v -9.92187 h 1.98438 1.98437 v 9.92187 9.92188 h -1.98437 -1.98438 z m 12.96459,0 v -9.92187 l 1.65364,0.0175 1.65365,0.0175 1.84335,2.29767 c 1.01383,1.26373 3.33555,4.14295 5.15937,6.39829 l 3.31603,4.10062 0.0709,-6.42723 0.0709,-6.42721 1.91349,0.0777 c 1.05241,0.0427 1.88373,0.16692 1.84735,0.27606 -0.0364,0.10914 -0.0661,4.54422 -0.0661,9.85573 v 9.65729 l -1.52136,-8e-5 -1.52135,-8e-5 -4.27622,-5.22544 c -2.35194,-2.87403 -4.69845,-5.70174 -5.21452,-6.28383 l -0.93826,-1.05833 -0.0111,6.28385 -0.0111,6.28386 h -1.98437 -1.98438 v -9.92188 z m 26.82128,3.50573 c 0.0772,-3.52888 0.14624,-7.99372 0.15333,-9.92187 l 0.0129,-3.50573 h 1.98438 1.98437 v 4.69609 4.69606 l 4.56407,-4.7167 4.5640598,-4.7167 2.24896,0.0868 2.24896,0.0868 -2.63602,2.77813 c -1.44981,1.52796 -3.2698799,3.44082 -4.0446099,4.25082 l -1.4085899,1.4727 3.5199098,4.61271 c 1.93596,2.53699 3.85946,5.05921 4.27445,5.60491 l 0.75454,0.99219 h -2.48848 -2.48846 l -1.0243099,-1.38906 c -0.56338,-0.76399 -1.9794799,-2.61644 -3.1469299,-4.11658 l -2.12262,-2.72748 -1.44206,1.44203 -1.44203,1.44206 0.0497,2.67451 0.0497,2.67452 h -2.15278 -2.15281 z M -137.9676,188.62222 c -10.72913,-0.49945 -21.95195,-1.68253 -30.0302,-3.16568 -6.70652,-1.23132 -10.97304,-2.46052 -14.72428,-4.24215 -3.4108,-1.61993 -4.59031,-2.87977 -4.59031,-4.90294 0,-0.81949 0.19694,-1.17321 1.17491,-2.11029 5.04178,-4.83086 24.54927,-8.60046 50.08811,-9.67893 l 7.47448,-0.31565 V 124.70066 85.194728 h 5.29167 5.29166 v 39.555202 39.55521 l 3.90261,0.003 c 9.26782,0.003 25.048129,1.23712 33.932809,2.65322 11.79793,1.88045 20.3114,4.64399 22.93561,7.44511 2.21073,2.35977 1.03622,4.5249 -3.70273,6.82564 -7.55968,3.67022 -24.59961,6.45163 -45.426629,7.4149 -6.50759,0.30096 -24.94495,0.28749 -31.61771,-0.023 z m 3.30729,-70.93233 c -1.81901,-0.87707 -6.04572,-2.87992 -9.3927,-4.45076 -10.75851,-5.04933 -13.89063,-6.59107 -13.89063,-6.83746 0,-0.26307 5.70025,-3.9479 15.21354,-9.834526 3.34698,-2.071052 7.29476,-4.515795 8.77283,-5.432777 1.47808,-0.916983 2.758,-1.596655 2.84427,-1.510385 0.23211,0.232109 0.19082,29.705538 -0.0416,29.681288 -0.10914,-0.0114 -1.68672,-0.73831 -3.50573,-1.61538 z"
       id="path3724"
       inkscape:connector-curvature="0"
       clip-path="url(#clipPath4541)"
       transform="matrix(2.007251,0,0,2.2259059,401.97356,-101.81378)" />
  </g>
</svg>
