<svg xmlns="http://www.w3.org/2000/svg" width="500" height="500" version="1.1" desc="Created with imagetracer.js version 1.2.5"><path d="M 301.5 59 L 321.5 60 L 343.5 66 Q 363.3 74.7 377 89.5 L 391 108.5 L 396 118.5 L 397 124 L 456.5 124 L 460 127.5 L 462 134.5 L 462 156.5 Q 456.9 182.4 440.5 197 L 428.5 206 L 417.5 211 L 403.5 214 L 389.5 214 L 387.5 213 L 382 221.5 L 390 238.5 L 397 263.5 L 397 268.5 L 399 274.5 L 399 284.5 L 400 285.5 L 400 308.5 L 399 309.5 L 399 319.5 L 398 320.5 L 397 332.5 L 390 357.5 L 378 383.5 Q 369.2 399.2 357.5 412 L 326.5 425 L 293.5 434 L 283.5 435 L 278.5 437 L 264.5 438 L 263.5 439 L 254.5 439 L 253.5 440 L 216.5 441 L 215.5 440 L 198.5 440 L 197.5 439 L 187.5 439 L 186.5 438 L 173.5 437 L 141.5 430 L 116.5 422 L 92.5 412 L 73.5 402 L 70 398.5 Q 50.9 370.6 42 332.5 L 42 327.5 L 39 314.5 L 39 307.5 L 38 306.5 L 38 264.5 L 39 263.5 L 39 256.5 L 40 255.5 L 40 248.5 L 42 238.5 L 50 212.5 Q 62.9 181.4 84.5 159 Q 87.5 156 93.5 156 Q 129 167.5 152 191.5 Q 164 203 172.5 218 L 183.5 216 L 195.5 216 L 196.5 215 L 227 215 Q 218 201.1 213 182.5 L 211 171.5 L 210 154.5 L 211 153.5 L 212 137.5 L 219 116.5 Q 226.8 99.3 239.5 87 Q 252.4 73.9 270.5 66 L 286.5 61 L 300.5 60 L 301.5 59 " fill="black" /></svg>