<svg width="500" height="500" version="1.1" xmlns="http://www.w3.org/2000/svg" desc="Created with imagetracer.js version 1.2.5"><path d="M 130.5 178 L 134 179.5 L 134 188.5 L 132.5 189 L 129 191.5 L 128 193.5 L 128 228.5 L 130.5 232 L 134 233 L 134 242.5 L 132.5 244 Q 120.5 243 115 235.5 L 113 230.5 L 113 190.5 Q 114.6 183.6 120.5 181 L 130.5 178 Z "></path><path d="M 137.5 178 Q 149.3 178.2 155 184.5 L 158 190.5 L 158 231.5 L 150.5 241 L 137.5 244 L 136 242.5 L 136 234.5 L 142 230.5 L 143 227.5 L 143 194.5 L 140.5 190 L 136 187.5 L 136 179.5 L 137.5 178 Z "></path><path d="M 309.5 178 L 313 179.5 L 313 188.5 L 311.5 189 L 307 192.5 L 307 229.5 L 310.5 233 L 313 233.5 L 313 242.5 L 309.5 244 L 301.5 242 L 294 235.5 L 291 226.5 L 291 193.5 Q 292.2 185.7 297.5 182 L 309.5 178 Z "></path><path d="M 316.5 178 Q 329.9 178.1 335 186.5 L 337 191.5 L 337 230.5 L 330.5 240 Q 325.5 244 316.5 244 L 315 242.5 L 315 234.5 L 320 232 L 321 229.5 L 321 192.5 L 315 189 L 315 179.5 L 316.5 178 Z "></path><path d="M 60.5 179 L 71.5 179 L 73 180.5 L 73 241.5 L 71.5 243 L 60.5 243 L 59 241.5 L 59 180.5 L 60.5 179 Z "></path><path d="M 92.5 179 L 104.5 179 L 106 180.5 L 106 241.5 L 104.5 243 L 92.5 243 L 91 241.5 L 91 180.5 L 92.5 179 Z "></path><path d="M 164.5 179 L 207.5 179 L 209 180.5 L 209 189.5 L 207.5 191 L 164.5 191 L 163 189.5 L 163 180.5 L 164.5 179 Z "></path><path d="M 238.5 179 L 251.5 179 L 254 181.5 L 261 201.5 L 254.5 215 Q 252.3 215.8 253 213.5 L 237 180.5 L 238.5 179 Z "></path><path d="M 273.5 179 L 286.5 179 L 287 182.5 L 270 215.5 L 270 241.5 L 268.5 243 L 256.5 243 L 255 241.5 L 255 219.5 L 271 180 L 273.5 179 Z "></path><path d="M 345.5 179 L 357.5 179 L 359 180.5 L 359 226.5 L 361 232 L 366 234.5 L 366 242.5 L 364.5 244 Q 353.5 243.5 348 237.5 L 344 228.5 L 344 180.5 L 345.5 179 Z "></path><path d="M 375.5 179 L 388.5 179 L 390 180.5 L 390 226.5 L 387 235.5 L 381.5 241 L 369.5 244 L 368 242.5 L 368 233 L 374 229.5 L 374 180.5 L 375.5 179 Z "></path><path d="M 398.5 179 L 410.5 179 L 412 180.5 L 412 241.5 L 410.5 243 L 398.5 243 L 397 241.5 L 397 180.5 L 398.5 179 Z "></path><path d="M 415.5 179 Q 431 178 438 185.5 Q 442.7 190.3 441 201.5 L 436.5 209 Q 434.3 208.3 435 210.5 Q 439.8 212.8 441 218.5 L 441 240.5 L 442 241.5 L 440.5 243 L 427.5 243 L 426 241.5 L 426 223.5 L 424 217 Q 421.6 215.3 415.5 216 L 414 214.5 L 414 205 L 419.5 205 L 425 201.5 L 426 196.5 L 422.5 191 Q 415.8 192.8 414 189.5 L 414 180.5 L 415.5 179 Z "></path><path d="M 74.5 185 L 90 215.5 L 90 237.5 L 89 237.5 L 74 207.5 L 74.5 185 Z "></path><path d="M 179.5 192 L 191.5 192 L 193 193.5 L 193 241.5 L 191.5 243 L 179.5 243 L 178 241.5 L 178 193.5 L 179.5 192 Z "></path><path d="M 163.5 259 Q 173.1 257.6 177 260 L 177 321.5 L 175.5 322 L 174.5 323 L 163.5 323 L 162 321.5 L 162 260.5 L 163.5 259 Z "></path><path d="M 180.5 259 L 187.5 259 L 196.5 261 L 204 267.5 Q 207.1 271.9 206 280.5 L 203 288 L 199 290.5 L 205 295.5 Q 208.3 300.2 207 309.5 Q 205.5 316 200.5 319 L 194.5 322 L 180.5 323 L 179 321.5 L 179 312 Q 187.5 313.4 191 308.5 L 192 301.5 L 190 297 Q 187.3 295.1 180.5 296 L 179 294.5 L 179 285 L 185.5 285 L 190 282.5 L 191 275.5 L 188.5 271 L 179 270 L 179 260.5 L 180.5 259 Z "></path><path d="M 227.5 259 L 244.5 259 L 246 260.5 L 261 321.5 L 259.5 323 L 247.5 323 L 245 319.5 L 243 309 L 231 309 L 231 304.5 L 232 299 Q 234.8 297.1 241 298 L 236.5 276 L 233 285.5 L 226 320.5 L 223.5 323 L 212.5 323 L 211 321.5 L 224 267.5 L 227.5 259 Z "></path><path d="M 267.5 259 Q 277.1 257.6 281 260 L 281 321.5 L 279.5 322 L 278.5 323 L 267.5 323 L 266 321.5 L 266 260.5 L 267.5 259 Z "></path><path d="M 307.5 259 L 318.5 259 L 320 260.5 L 320 321.5 L 318.5 323 Q 308.9 324.4 305 322 L 305 260.5 L 306.5 260 L 307.5 259 Z "></path><path d="M 283 312 L 300 312 L 300 321.5 L 298.5 323 L 284.5 323 L 283 321.5 L 283 312 Z "></path><path d="M 323 312 L 340 312 L 340 321.5 L 338.5 323 L 324.5 323 L 323 321.5 L 323 312 Z "></path></svg>