<svg width="500" height="500" version="1.1" xmlns="http://www.w3.org/2000/svg" desc="Created with imagetracer.js version 1.2.5"><path d="M 69 207 L 81.5 207 L 82 207.5 L 82 270 L 69.5 270 L 69 269.5 L 69 207 Z "></path><path d="M 102 207 L 114.5 207 L 115 207.5 L 115 270 L 102.5 270 L 102 269.5 L 102 207 Z "></path><path d="M 223.5 207 L 237.5 207 L 239 208.5 L 246 225.5 L 246 229.5 L 239.5 243 L 223.5 207 Z "></path><path d="M 258.5 207 L 272.5 207 L 273 208.5 L 255 244.5 L 255 270 L 241 270 L 241 246.5 L 255 212.5 L 258.5 207 Z "></path><path d="M 84.5 213 L 100 243.5 L 100 264.5 L 99 264.5 L 84 234.5 L 84.5 213 Z "></path><path d="M 172 214 L 183.5 214 L 184 214.5 L 184 255.5 L 187.5 261 L 194 261 L 194 271 Q 178.4 273.4 173 264.5 L 172 262.5 L 172 214 Z "></path><path d="M 135.5 226 L 141 226 L 141 236 L 137 237.5 L 136 239.5 L 136 257.5 L 138.5 261 L 141 261.5 L 141 271 Q 129.9 271.5 125 264.5 L 123 260.5 L 123 236.5 L 126 230 L 135.5 226 Z "></path><path d="M 143 226 Q 154.1 225.5 159 232.5 L 161 238.5 L 161 257.5 L 157 267 Q 152.3 271.2 143 271 L 143 261.5 L 144.5 261 L 147 258.5 L 147 237 L 143 236 L 143 226 Z "></path><path d="M 286.5 226 L 292 226 L 292 236 L 288 237.5 L 287 239.5 L 287 257.5 L 289.5 261 L 292 261.5 L 292 271 Q 280.9 271.5 276 264.5 L 274 260.5 L 274 236.5 L 277 230 L 286.5 226 Z "></path><path d="M 294 226 Q 305.1 225.5 310 232.5 L 312 238.5 L 312 257.5 L 308 267 Q 303.3 271.2 294 271 L 294 261.5 L 295.5 261 L 298 258.5 L 298 237 L 294 236 L 294 226 Z "></path><path d="M 407.5 226 L 413 226 L 413 236 L 409 237.5 Q 408.5 241.5 411.5 242 Q 424 244.5 431 252.5 Q 433.5 256 432 263.5 Q 427.6 271.9 415 271 L 415 261 L 418.5 261 Q 421 259.8 420 256 L 402.5 249 L 397 243.5 Q 395.3 233.4 399 230 L 407.5 226 Z "></path><path d="M 415 226 Q 425.9 225.3 430 232.5 L 432 241 L 420.5 241 L 420 238.5 Q 418.8 235.3 415 236 L 415 226 Z "></path><path d="M 165 227 L 170 227 L 170 237 L 165 237 L 165 227 Z "></path><path d="M 187 227 L 192 227 L 192 237 L 187 237 L 187 227 Z "></path><path d="M 319 227 L 332 227 L 332 257.5 L 335.5 262 L 340.5 261 L 341 269 Q 337.1 272.3 327.5 271 L 321 266.5 L 319 261.5 L 319 227 Z "></path><path d="M 343 227 L 355.5 227 L 356 227.5 L 356 270 L 343.5 270 L 343 269.5 L 343 227 Z "></path><path d="M 364 227 L 376.5 227 L 377 227.5 L 377 270 L 364.5 270 L 364 269.5 L 364 227 Z "></path><path d="M 385.5 227 L 390 227 L 390 237 Q 383.3 235.6 380.5 239 L 380 230.5 L 385.5 227 Z "></path><path d="M 395 254 L 406.5 254 L 407 257.5 Q 408.3 261.8 413 261 L 413 271 L 408.5 271 Q 400.7 269.8 397 264.5 Q 394.1 260.6 395 254 Z "></path></svg>